<?xml version="1.0" encoding="UTF-8" standalone="no"?>
<!DOCTYPE svg PUBLIC "-//W3C//DTD SVG 1.1//EN" "http://www.w3.org/Graphics/SVG/1.1/DTD/svg11.dtd">
<!-- Created with Vectornator (http://vectornator.io/) -->
<svg height="210.0mm" stroke-miterlimit="10" style="fill-rule:nonzero;clip-rule:evenodd;stroke-linecap:round;stroke-linejoin:round;" version="1.1" viewBox="0 0 518.805 595.35" width="182.99999999999997mm" xml:space="preserve" xmlns="http://www.w3.org/2000/svg" xmlns:xlink="http://www.w3.org/1999/xlink">
<defs/>
<g id="Layer-1"/>
<clipPath id="ArtboardFrame">
<rect height="595.35" width="518.805" x="0" y="0"/>
</clipPath>
<g clip-path="url(#ArtboardFrame)" id="Layer-2">
<path d="M279.258 0.775247C269.84-1.48169 251.588 1.56081 242.919 5.1308C231.937 9.65338 218.598 22.0952 213.966 30.1326C208.615 39.4167 205.494 48.6259 201.663 57.5156C197.831 66.4052 192.881 85.5366 189.523 96.7191C189.304 97.4513 189.035 97.2508 185.34 97.6546C174.966 98.3667 167.563 99.9055 159.586 101.396C151.965 102.821 130.311 108.841 120.79 112.792C114.156 115.543 104.924 120.642 96.6758 125.463C93.0825 127.563 89.6826 129.636 86.7513 131.416C77.0834 137.282 71.8195 141.351 65.1797 146.042C58.5402 150.735 44.2419 165.648 36.8005 174.276C29.359 182.903 24.828 191.201 20.2323 198.087C15.6365 204.973 11.8218 215.264 7.8471 225.215C7.55477 225.947 7.23881 226.769 6.94487 227.766C5.19644 233.698 3.47664 244.035 2.92585 255.149C2.311 267.578 2.63573 278.696 3.38562 284.357C4.92091 295.933 9.02506 306.131 14.2447 313.657C19.4643 321.184 29.3071 325.355 40.6555 328.114C52.0039 330.872 62.0313 328.232 69.3628 326.073C76.6963 323.914 87.1197 317.916 93.723 313.487C100.326 309.059 108.703 305.149 114.72 299.285C115.097 298.918 115.342 298.761 115.541 298.605C115.735 298.451 115.865 298.186 116.197 298.009C116.947 297.464 116.887 297.319 117.509 296.819C118.138 296.314 118.309 296.08 118.739 295.713C119.057 295.316 121.75 293.497 121.938 293.247C121.298 293.409 120.8 293.424 119.97 293.502C118.534 293.637 116.937 293.673 116.935 293.672C116.935 293.672 109.683 294.234 101.761 287.719C94.5292 281.772 92.2961 269.431 91.0163 258.976C89.8012 249.049 91.247 242.617 92.4107 234.144C93.5762 225.67 98.0084 210.383 104.468 199.448C110.924 188.513 116.414 179.005 128.746 167.047C141.076 155.09 148.487 151.757 159.422 145.362C164.06 142.649 173.898 139.54 184.93 136.773C184.865 138.571 184.963 141.664 184.93 142.896C184.884 144.637 185.106 149.307 185.258 151.91C185.901 162.661 187.763 176.545 188.211 183.205C188.765 191.48 190.408 211.089 190.918 221.558C191.355 230.543 192.683 259.797 193.05 267.735C193.418 275.673 192.703 312.147 193.05 322.841C193.397 333.535 190.041 374.874 188.949 385.856C187.856 396.839 185.055 412.952 183.536 422.508C182.017 432.065 174.805 456.507 169.264 466.729C168.291 468.525 165.901 473.453 164.343 476.594C161.289 475.31 158.139 474.161 154.254 472.427C146.952 469.162 140.362 466.998 132.437 462.987C124.512 458.976 114.932 457.262 106.108 455.674C97.2847 454.086 82.2294 454.3 74.6122 454.398C66.993 454.496 51.3339 459.457 44.8385 461.627C38.343 463.797 28.6756 471.619 24.2513 475.063C19.826 478.508 15.0795 488.401 13.7526 494.877C12.3608 501.675 13.7481 513.054 15.8852 517.583C18.1762 522.441 27.147 532.754 32.3714 537.568C37.5949 542.383 51.3726 547.455 56.4035 550.409C61.4334 553.362 78.729 556.317 84.6187 557.042C90.5065 557.765 114.342 554.692 122.922 552.79C131.505 550.889 138.449 548.17 143.428 545.221C144.369 544.663 146.903 542.724 148.431 541.735C148.471 541.379 148.473 540.722 148.513 540.374C148.829 537.638 148.495 535.692 150.728 533.656C152.96 531.62 158.929 530.849 158.93 530.849C161.001 530.563 162.389 530.516 165.163 530.254C166.814 529.051 168.786 527.896 170.003 526.938C171.258 525.95 173.431 523.11 175.088 521.325C181.323 524.543 185.446 526.615 193.46 533.146C204.975 542.528 225.002 551.261 237.506 555.341C250.01 559.421 266.529 562.343 283.602 562.229C300.678 562.117 306.421 562.273 322.643 558.488C329.867 556.803 337.178 554.859 344.461 552.28C343.351 549.258 342.44 546.433 342.493 544.371C342.643 538.281 353.381 537.852 359.389 530.935C365.397 524.016 367.457 516.679 369.97 513.841C372.484 511.003 380.22 487.279 381.699 482.887C383.099 478.726 387.316 468.462 390.803 463.243C391.443 462.281 394.139 458.771 395.97 457.205C401.664 452.336 409.077 446.099 405.977 445.554C402.878 445.009 383.529 441.332 370.544 438.836C366.447 445.448 362.285 452.124 361.029 454.143C356.12 462.034 347.163 472.08 342.164 476.594C337.162 481.108 325.075 489.054 318.624 493.687C312.174 498.316 294.618 508.356 284.586 510.525C279.081 511.716 270.444 512.478 262.85 512.226C256.609 512.019 251.443 511.006 246.118 510.015C234.313 507.814 214.422 499.996 206.42 496.238C204.702 495.432 201.681 494.034 199.284 492.837C204.825 486.738 209.846 481.571 215.032 474.808C220.962 467.073 228.883 456.068 231.19 452.187C233.497 448.306 240.302 435.976 242.919 431.437C245.537 426.899 251.948 410.222 255.796 401.418C259.644 392.615 262.576 381.109 264.491 372.93C266.403 364.75 268.332 351.373 267.853 341.21C267.468 333.025 267.31 323.005 266.377 314.677C265.313 311.937 263.358 307.407 263.014 306.513C261.679 303.053 255.966 289.141 255.632 285.508C255.469 283.738 257.018 281.955 258.831 280.321C258.376 278.869 258.22 277.889 257.683 276.324C253.41 263.828 248.507 253.151 243.247 242.988C237.988 232.826 234.539 228.378 229.058 216.201C223.576 204.023 217.223 188.964 214.786 179.038C211.048 163.806 212.852 145.215 212.735 131.245C217.928 130.519 223.412 130.182 226.925 130.395C241.948 131.306 266.432 137.179 279.5 141.28C275.271 149.208 270.919 157.131 270.068 159.139C268.2 163.535 254.866 184.005 252.023 188.307C249.183 192.61 235.783 210.588 235.783 210.588C235.783 210.588 259.278 189.772 269.904 177.933C280.531 166.093 277.347 169.761 285.406 158.373C287.967 154.754 290.64 150.73 293.28 146.808C303.68 152.359 315.704 161.054 325.104 167.983C334.75 175.094 341.564 182.675 347.25 189.413C351.404 184.012 361.13 180.298 368.657 179.123C377.009 177.819 392.987 186.878 395.232 188.648C397.479 190.417 397.544 192.985 397.365 194.941C397.183 196.896 395.126 198.067 393.51 199.278C391.893 200.488 393.447 204.142 394.166 209.823C394.883 215.503 397.522 220.032 395.396 221.643C394.451 222.359 393.591 223.494 391.705 224.705C389.82 225.916 391.451 239.589 390.147 240.947C389.573 241.545 387.843 241.676 385.882 241.713C383.92 241.749 381.726 241.691 380.14 241.798C383.628 248.936 386.548 258.959 389.08 268.67C389.087 268.697 389.074 268.729 389.08 268.756C389.246 268.868 390.055 269.086 390.147 269.181C392.005 271.107 400.455 279.599 402.778 281.767C405.1 283.934 412.8 293.864 415.819 294.948C418.839 296.032 455.032 269.083 454.451 271.732C453.87 274.381 446.563 301.001 444.937 302.687C443.311 304.372 420.33 322.998 418.936 324.202C417.542 325.406 411.976 324.825 409.422 323.862C407.72 323.22 402.02 318.515 397.119 314.592C397.413 317.893 397.728 321.899 398.021 324.117C399.142 332.547 397.02 351.362 396.544 361.619C396.235 368.308 392.773 382.625 389.327 395.636C396.142 398.598 402.735 401.279 409.75 404.565C434.131 415.988 445.366 433.999 445.265 439.856C445.163 445.714 437.934 453.054 432.223 460.776C426.512 468.499 405.796 499.165 398.349 509.419C394.155 515.193 388.452 523.124 383.585 530.849C395.253 522.857 407.357 513.752 417.05 502.956C431.402 486.973 437.745 481.557 445.265 469.706C452.782 457.852 462.105 433.482 466.098 422.423C473.825 401.035 473.555 397.364 476.023 387.132C478.49 376.898 479.958 360.879 479.96 350.224C479.96 336.179 479.639 324.826 477.171 310.935C476.038 304.561 473.57 295.469 470.937 286.444C465.873 298.591 460.272 312.372 456.83 320.035C444.071 348.43 436.463 370.793 433.618 371.569C430.774 372.345 435.832 356.347 435.832 356.347C435.832 356.347 449.448 307.789 449.448 307.789L461.833 258.125C461.685 257.731 461.568 257.491 461.423 257.105C456.751 244.627 453.838 236.505 446.659 224.45C439.255 212.021 435.729 201.834 426.564 191.964C417.397 182.095 406.426 170.352 397.611 161.945C388.797 153.537 364.952 140.593 354.796 135.327C344.638 130.062 325.583 120.506 315.426 117.214C314.582 116.94 312.678 116.361 311.653 116.023C317.54 103.7 319.251 93.0026 321.249 83.4529C323.46 72.884 323.562 62.3276 321.571 51.6669C319.506 40.5959 315.53 29.8638 307.403 18.4553C301.361 9.9747 293.552 4.2005 279.258 0.775247ZM258.744 21.0501C262.087 20.4964 274.45 22.0373 279.896 27.5113C286.589 34.2372 288.488 40.4648 289.229 42.7318C291.682 50.2427 294.648 74.2615 294.346 80.0512C294.122 84.3552 292.884 99.0173 291.64 109.475C283.226 106.878 274.69 104.473 269.412 103.692C258.302 102.047 237.948 99.0782 224.3 98.4199C222.2 98.3187 217.728 98.7114 214.786 98.7601C215.337 93.1012 216.267 84.8932 216.918 82.0922C219.2 72.2914 225.095 55.808 229.386 47.906C233.673 40.004 242.65 28.835 248.497 24.6901C251.421 22.6176 251.862 22.1897 258.744 21.0501ZM58.29 473.787C65.788 473.213 75.5447 474.675 82.8142 476.679C92.5097 479.351 113.373 489.34 123.497 495.473C129.845 499.316 138.834 503.245 148.349 507.634C145.475 512.764 143.011 516.831 141.541 517.838C136.411 521.362 124.672 527.491 115.623 531.02C106.573 534.55 91.2649 533.997 85.2749 532.635C79.2885 531.274 62.2556 527.451 56.1574 522.686C50.0593 517.92 51.6739 520.049 44.5105 511.715C37.3471 503.383 36.4215 499.005 36.8825 489.945C37.3434 480.885 44.4263 477.879 51.7283 475.063C53.5541 474.36 55.7907 473.981 58.29 473.787Z" fill="#053263" fill-rule="nonzero" opacity="0.998878" stroke="#ffffff" stroke-linecap="butt" stroke-linejoin="round" stroke-opacity="0" stroke-width="11.9848"/>
<path d="M177.712 529.064C177.713 529.064 170.748 529.728 165.163 530.254C162.389 530.516 161.001 530.562 158.93 530.849C158.93 530.849 152.96 531.62 150.728 533.656C148.495 535.692 148.829 537.638 148.513 540.374C148.473 540.722 148.471 541.379 148.431 541.735C148.155 544.181 147.86 546.637 147.939 551.089C148.029 556.189 146.913 558.512 145.724 561.719C144.535 564.926 144.237 567.624 142.936 570.138C141.634 572.652 141.062 580.417 141.377 583.83C141.692 587.243 141.066 591.803 142.608 594.289C144.149 596.776 146.399 594.213 148.513 593.354C150.627 592.494 153.007 587.76 154.008 585.445C155.01 583.131 157.283 579.695 158.274 578.047C160.635 574.118 167.644 567.276 171.397 562.91C175.15 558.543 193.949 539.438 193.789 540.204C193.628 540.97 177.712 529.064 177.712 529.064Z" fill="#ffffff" fill-rule="nonzero" opacity="1" stroke="#ffffff" stroke-linecap="butt" stroke-linejoin="round" stroke-opacity="0" stroke-width="10"/>
<path d="M472.988 213.479L461.833 258.125L449.448 307.789C449.448 307.789 435.832 356.347 435.832 356.347C435.832 356.347 430.774 372.345 433.618 371.569C436.462 370.793 444.071 348.43 456.83 320.035C460.273 312.372 465.873 298.591 470.937 286.444C470.929 286.415 470.946 286.388 470.937 286.359C483.711 255.716 497.482 221.838 496.692 221.728C494.953 221.486 489.735 219.932 485.947 218.667C482.205 217.416 472.987 213.479 472.988 213.479Z" fill="#ffffff" fill-rule="nonzero" opacity="1" stroke="#ffffff" stroke-linecap="butt" stroke-linejoin="round" stroke-opacity="0" stroke-width="10"/>
<path d="M370.134 261.187C370.134 261.187 377.455 273.024 378.5 276.154C379.545 279.284 380.168 285.843 380.632 287.89C381.097 289.936 381.33 299.945 382.027 301.751C382.723 303.557 389.225 308.35 390.967 309.915C391.549 310.438 394.66 312.625 397.119 314.592C402.021 318.515 407.72 323.22 409.422 323.862C411.976 324.825 417.542 325.406 418.936 324.202C420.33 322.998 443.311 304.372 444.937 302.687C446.563 301.001 453.87 274.381 454.451 271.732C455.032 269.083 418.839 296.032 415.819 294.948C412.8 293.864 405.1 283.934 402.778 281.767C400.455 279.599 392.005 271.107 390.147 269.181C390.056 269.086 389.246 268.869 389.08 268.756C389.074 268.729 389.087 268.697 389.08 268.67C385.838 266.469 370.134 261.187 370.134 261.187Z" fill="#ffffff" fill-rule="nonzero" opacity="1" stroke="none"/>
<path d="M368.657 179.123C361.131 180.298 351.404 184.012 347.25 189.413C346.794 190.006 346.075 190.478 345.773 191.114C342.72 197.539 344.517 211.626 345.773 215.35C347.031 219.075 347.953 223.479 347.414 226.831C346.875 230.183 343.745 236.773 342.575 238.821C341.407 240.87 336.85 245.009 331.912 246.22C326.972 247.43 284.925 262.411 279.418 265.524C273.912 268.638 266.498 274.424 264.163 276.154C262.965 277.041 260.738 278.602 258.831 280.321C257.019 281.956 255.469 283.738 255.632 285.508C255.966 289.141 261.679 303.053 263.014 306.513C263.359 307.407 265.313 311.937 266.377 314.677C269.428 322.546 273.418 333.235 275.974 338.148C279.422 344.773 280.276 347.303 281.797 352.35C283.318 357.397 282.049 355.089 282.863 357.112C283.677 359.136 285.414 363.247 286.39 364.681C287.366 366.114 290.588 369.104 292.214 369.273C293.84 369.442 300.999 369.175 302.056 367.742C303.114 366.309 305.756 365.68 306.649 363.15C307.544 360.62 308.533 358.026 308.208 355.497C307.882 352.967 307.785 350.717 306.321 348.693C304.857 346.67 303.269 345.961 301.072 344.696C298.876 343.432 298.268 341.716 296.643 341.295C295.016 340.873 292.613 328.848 291.311 325.222C290.01 321.596 282.453 295.373 282.453 295.373C282.633 295.187 286.124 295.005 288.523 294.268C290.949 293.522 330.496 280.437 325.104 283.978C319.713 287.518 316.868 291.518 316.902 293.077C317.076 300.922 322.441 333.147 321.741 338.403C321.042 343.66 319.869 358.911 318.296 361.449C316.723 363.987 305.505 382.075 304.107 384.07C302.708 386.064 300.831 396.739 302.056 400.908C303.28 405.077 310.396 415.733 312.555 417.236C323.545 424.89 354.352 435.697 359.143 436.71C360.556 437.009 366.368 438.033 370.544 438.836C383.529 441.332 402.878 445.009 405.977 445.554C409.077 446.099 401.664 452.336 395.97 457.205C394.139 458.771 391.442 462.281 390.803 463.243C387.316 468.462 383.099 478.726 381.699 482.887C380.22 487.279 372.484 511.004 369.97 513.841C367.456 516.681 365.397 524.016 359.389 530.935C353.382 537.852 342.643 538.281 342.493 544.371C342.441 546.433 343.351 549.258 344.461 552.28C346.627 558.182 349.976 564.801 351.187 567.842C353.016 572.439 372.746 594.145 374.891 595.14C377.036 596.135 381.698 593.27 381.699 593.269C378.592 578.323 372.113 557.909 375.137 547.347C376.458 542.733 379.809 536.843 383.585 530.849C386.111 526.84 388.839 522.758 391.51 518.986C394.911 514.183 396.332 512.196 398.349 509.419C398.554 509.137 398.125 509.731 398.349 509.419C406.28 498.387 426.669 468.286 432.223 460.776C437.934 453.054 445.163 445.714 445.265 439.856C445.367 433.999 434.131 415.988 409.75 404.565C402.735 401.279 396.142 398.598 389.327 395.636C372.449 388.299 356.458 382.154 346.348 382.624C332.152 383.284 359.962 379.475 360.537 381.604C361.111 383.733 361.276 378.306 362.67 375.566C364.064 372.825 374.262 346.834 375.383 338.488C376.507 330.143 381.646 291.727 373.168 275.559C364.693 259.39 363.997 263.619 367.673 258.04C371.347 252.461 376.101 242.383 378.664 241.798C378.971 241.728 379.707 241.826 380.14 241.798C383.313 241.585 388.999 242.143 390.147 240.947C391.45 239.589 389.82 225.917 391.705 224.705C393.591 223.494 394.452 222.359 395.396 221.643C397.523 220.032 394.883 215.503 394.166 209.823C393.447 204.142 391.893 200.488 393.51 199.278C395.126 198.067 397.183 196.896 397.365 194.941C397.544 192.985 397.479 190.418 395.232 188.648C392.987 186.878 377.009 177.819 368.657 179.123Z" fill="#f4f4f4" fill-rule="nonzero" opacity="1" stroke="#ffffff" stroke-linecap="butt" stroke-linejoin="round" stroke-opacity="0" stroke-width="10"/>
<path d="M298.477 401.208C298.349 401.558 297.786 402.956 297.627 403.289C297.249 404.085 296.836 404.79 296.151 405.925C296.255 405.861 295.868 406.393 295.823 406.521C295.747 406.735 295.594 406.852 295.413 407.116C295.412 407.117 294.866 407.739 294.592 408.136C294.579 408.152 294.605 408.206 294.592 408.221C294.566 408.269 294.543 408.352 294.51 408.392C294.396 408.525 294.548 408.337 294.428 408.477C294.408 408.501 294.286 408.709 294.264 408.732C292.946 410.256 292.111 410.902 290.819 413.069C289.432 415.398 286.026 419.236 284.586 421.318C283.146 423.399 280.502 427.869 278.926 430.502C277.189 433.403 272.365 439.936 271.298 442.153C270.232 444.369 263.516 451.325 261.374 454.653C259.232 457.982 253.053 463.08 250.711 463.583C248.369 464.085 239.331 466.586 236.111 466.899C232.892 467.212 225.784 473.324 223.808 475.063C221.832 476.802 211.736 486.891 208.716 490.03C205.697 493.169 243.513 503.685 245.954 502.531C248.395 501.378 252.83 498.723 256.617 496.833C260.403 494.944 274.271 489.342 280.403 485.438C286.534 481.534 294.901 473.876 301.564 469.621C308.228 465.364 321.062 449.765 323.71 446.405C326.357 443.044 335.774 434.655 335.931 433.563C336.088 432.472 324.342 430.494 320.593 428.971C317.427 427.686 311.281 423.861 308.044 420.978C304.806 418.094 303.822 417.201 302.22 413.494C300.447 409.389 301.206 412.111 299.021 403.289C298.184 399.906 298.573 401.378 298.477 401.208Z" fill="#f4f4f4" fill-rule="nonzero" opacity="1" stroke="none"/>
<path d="M473.847 213.446L433.581 355.268" fill="#f4f4f4" fill-rule="nonzero" opacity="1" stroke="#ffffff" stroke-linecap="butt" stroke-linejoin="round" stroke-opacity="0" stroke-width="10"/>
<path d="M468.152 185.694L487 192.774C487 192.774 496.668 196.567 498.173 197.051C501.583 198.146 516.117 202.183 517.266 202.641C518.415 203.1 519.564 204.566 518.15 206.124C516.736 207.682 511.751 211.078 507.896 212.723C504.447 214.195 497.737 216.929 491.747 215.55C488.772 214.866 483.919 213.445 479.937 211.296C477.928 210.212 475.757 207.959 475.014 207.224C471.843 204.087 468.836 199.238 468.183 197.379C467.139 194.403 466.121 189.008 466.121 187.541C466.121 186.075 468.152 185.694 468.152 185.694Z" fill="#f4f4f4" fill-rule="nonzero" opacity="1" stroke="none"/>
<path d="M507.226 186.625C506.758 183.588 506.758 163.182 504.649 158.931C502.54 154.679 495.394 138.403 482.156 134.394C468.917 130.386 442.558 127.592 438.34 126.256C434.123 124.92 419.01 115.567 415.378 107.307C411.746 99.0478 408.727 70.1342 411.088 63.7685C413.45 57.4027 412.387 56.9131 413.214 58.5045C414.04 60.0959 416.402 66.5841 418.055 69.5222C419.708 72.4602 422.896 81.3967 426.792 84.9469C430.688 88.497 440.724 97.0663 446.392 99.1474C452.059 101.229 464.929 105.636 470.715 106.86C476.5 108.084 487.599 111.512 493.857 116.286C500.115 121.06 507.199 128.405 508.97 132.935C510.741 137.464 514.992 147.013 515.11 152.155C515.228 157.296 514.519 164.274 514.283 168.803C514.047 173.333 512.984 177.373 511.45 180.923C509.915 184.473 507.695 189.662 507.226 186.625Z" fill="#e5c147" fill-rule="nonzero" opacity="1" stroke="none"/>
<path d="M404.721 100.057C404.65 101.838 406.398 113.029 408.176 117.796C409.953 122.562 417.134 135.955 421.172 138.607C421.772 139.001 430.511 144.23 438.792 146.263C447.173 148.321 456.185 146.359 466.901 147.4C477.403 148.419 484.167 155.614 482.222 153.349C480.276 151.083 473.847 141.683 464.078 137.518C461.637 136.477 453.999 135.984 449.693 134.869C445.386 133.754 440.612 132.247 435.155 129.931C429.697 127.614 419.484 120.634 415.702 116.562C413.247 113.919 409.517 106.522 408.958 105.704C408.399 104.886 404.793 98.2755 404.721 100.057Z" fill="#e8c240" fill-rule="nonzero" opacity="1" stroke="none"/>
<path d="M417.408 148.469C418.628 150.436 423.162 157.016 425.517 159.169C429.512 162.822 431.905 165.156 434.24 166.812C436.574 168.468 442.775 171.298 445.265 172.243C450.193 174.115 454.88 174.709 457.582 174.454C460.285 174.2 469.991 173.818 472.08 174.072C474.168 174.327 481.647 174.925 483.736 176.454C485.825 177.982 488.174 179.804 490.631 182.225C493.088 184.645 495.177 187.193 496.037 187.957C496.897 188.721 496.774 186.046 496.283 184.135C495.791 182.225 496.037 178.531 494.931 175.856C493.826 173.181 494.042 172.268 490.331 168.374C488.863 166.834 486.132 163.889 482.938 162.997C479.744 162.105 476.737 161.342 470.407 160.482C468.248 160.188 462.687 160.048 457.635 159.32C455.068 158.951 451.317 158.277 447.877 157.768C444.437 157.258 441.98 156.494 438.785 155.857C435.591 155.22 436.159 155.331 432.75 154.243C430.282 153.455 427.303 151.683 425.641 150.469C424.479 149.62 419.965 146.966 419.539 146.634C419.112 146.302 415.672 144.214 415.703 144.23C415.733 144.246 417.243 148.203 417.408 148.469Z" fill="#e8c240" fill-rule="nonzero" opacity="1" stroke="none"/>
</g>
</svg>
