<svg width="159" height="42" viewBox="0 0 159 42" fill="none" xmlns="http://www.w3.org/2000/svg">
<path fill-rule="evenodd" clip-rule="evenodd" d="M68.3552 4.44019H59.8631L51.8217 26.0843L43.8555 4.44019H35.2129V32.9984H40.8492V11.5044L48.8156 32.9984H54.8278L62.7187 11.7301V32.9984H68.3552V4.44019Z" fill="#231F20"/>
<path fill-rule="evenodd" clip-rule="evenodd" d="M99.4682 27.7376C98.6416 27.7376 98.1155 27.2116 98.1155 26.3849V15.9384H92.93L100.37 4.44019H93.9821L87.0681 15.9384H82.1832V4.44019H76.3965V32.9984H82.1832V21.049H92.3288V27.8126C92.3288 31.1945 94.2075 32.9984 97.5142 32.9984H100.445V27.7376H99.4682Z" fill="#231F20"/>
<path fill-rule="evenodd" clip-rule="evenodd" d="M117.43 33.3738C123.517 33.3738 128.026 30.2176 129.604 25.0318L124.193 23.153C123.141 26.6102 120.736 28.489 117.354 28.489C112.545 28.489 109.539 24.7315 109.539 18.719C109.539 12.7069 112.62 8.94935 117.354 8.94935C120.736 8.94935 123.141 10.8281 124.193 14.285L129.604 12.4062C127.951 7.07028 123.517 4.06421 117.43 4.06421C109.238 4.06421 103.677 10.0014 103.677 18.719C103.677 27.5871 109.163 33.3738 117.43 33.3738Z" fill="#231F20"/>
<path fill-rule="evenodd" clip-rule="evenodd" d="M158.012 27.7376C157.186 27.7376 156.66 27.2116 156.66 26.3849V15.9384H151.474L158.914 4.44019H152.526L145.612 15.9384H140.727V4.44019H134.94V32.9984H140.727V21.049H150.873V27.8126C150.873 31.1945 152.752 32.9984 156.058 32.9984H158.989V27.7376H158.012Z" fill="#231F20"/>
<path d="M1.94486 23.1216L3.06882 23.1189C3.35697 22.0074 4.13705 21.0805 5.14313 20.5788L4.38194 13.9828C4.08922 11.9685 3.18883 10.0739 1.95217 8.57311L1.94486 8.57555V23.1216ZM1.94486 30.9635H6.35817C6.35817 29.9647 6.49737 29.0043 6.74714 28.0917L5.80594 27.8782C4.46845 27.5036 3.4121 26.4375 3.06151 25.0832H1.94486V30.9635ZM10.7715 30.961C10.7715 29.7052 9.85648 28.6921 8.53361 28.5191C8.32222 29.2995 8.19733 30.1207 8.19733 30.961H10.7715ZM8.41116 32.9227C8.76906 34.5867 9.66458 36.1331 10.7739 37.2519V32.9227H8.41116ZM11.763 21.2221L11.7559 21.2535C11.2997 23.0616 10.2119 25.1119 9.31155 26.6318C10.589 26.9991 11.3091 27.5587 11.7559 28.1758L11.763 28.1877L11.7703 28.1758C12.2168 27.5587 12.9396 26.9991 14.2147 26.6318C13.3143 25.1119 12.2241 23.0589 11.7703 21.2535L11.763 21.2221ZM21.5789 8.57311L21.5716 8.57067C20.3349 10.0739 19.4346 11.966 19.1415 13.9806L18.3806 20.5761C19.3843 21.0759 20.1647 22.005 20.455 23.1167H21.5789V8.57311ZM15.1126 32.9227H12.7499V37.2519C13.8976 36.0947 14.7669 34.5388 15.1126 32.9227ZM14.9902 28.5191C13.667 28.6921 12.7523 29.7052 12.7523 30.961H15.3286C15.3286 30.135 15.2061 29.3138 14.9926 28.5191H14.9902ZM17.1632 30.9635H21.5765V25.0832H20.4598C20.1092 26.4375 19.0529 27.506 17.7154 27.8779L16.7742 28.0917C17.0334 29.0305 17.1632 29.9909 17.1632 30.9635ZM11.763 40.4094L10.1544 39.1465C8.31278 37.576 7.01123 35.3887 6.55525 32.9156H0V4.52013C3.58725 6.59475 5.9357 10.5301 6.32223 14.1844L7.26831 22.0768L6.64145 22.149L6.6247 22.1515C5.80594 22.2474 5.10719 22.8645 4.93662 23.7171C4.72309 24.7783 5.41453 25.8106 6.47575 26.022L7.44833 26.2404C7.84918 25.4841 8.27653 24.7351 8.64661 23.9641C9.4605 22.3339 10.6131 19.2292 10.5985 15.2721C10.5625 12.0093 10.3393 8.74125 10.2866 5.47078C10.2866 3.98221 10.8434 2.62553 11.7559 1.58838H11.7727C12.685 2.62553 13.2421 3.98221 13.2421 5.47078C13.1894 8.74125 12.9637 12.0093 12.9299 15.2721C12.9131 19.2292 14.0682 22.3339 14.882 23.9641C15.2518 24.7351 15.6792 25.4841 16.0803 26.2404L17.0526 26.022C18.1141 25.8106 18.8031 24.7783 18.5917 23.7171C18.4215 22.867 17.7203 22.2499 16.904 22.1515H16.8893L16.2628 22.0793L17.2089 14.1868C17.5954 10.5326 19.9435 6.59718 23.5311 4.52257V32.9181H16.9758C16.5293 35.3384 15.2591 37.5425 13.3767 39.1489L11.7678 40.4118L11.763 40.4094Z" fill="#231F20"/>
</svg>
